<svg xmlns="http://www.w3.org/2000/svg" viewBox="0 0 8192.01 1283.36"><defs><style>.a{fill:#ea4335;}.b{fill:#4285f4;}.c{fill:#34a853;}.d{fill:#fbbc05;}.e{fill:#5f6368;}</style></defs><title>google-cloud-logo</title><path class="a" d="M963.62,336.54h46.3l132-132,6.47-56.06C902.72-68.37,527.8-44.94,310.94,200.72A593.24,593.24,0,0,0,183.14,438a71.38,71.38,0,0,1,46.31-2.73l264-43.58s13.4-22.24,20.42-20.87c117.41-129,315-144,450.68-34.28Z"/><path class="b" d="M1330,438a594.08,594.08,0,0,0-179.21-289L965.53,334.27A329.35,329.35,0,0,1,1086.4,595.52v32.91a164.9,164.9,0,0,1,0,329.8H756.6l-32.91,33.36V1189.4l32.91,32.91h329.8c236.83,1.82,430.35-188.7,432.17-425.52A429,429,0,0,0,1330,438Z"/><path class="c" d="M426.34,1220.21H756.15v-264H426.34a164.08,164.08,0,0,1-68.09-14.86l-46.31,14.41-132.9,132-11.58,46.31A425.69,425.69,0,0,0,426.34,1220.21Z"/><path class="d" d="M426.34,363.89C189.43,365.26-1.36,558.42,0,795.33A428.64,428.64,0,0,0,167.46,1132.7L358.71,941.46c-83-37.47-119.87-135.19-82.41-218.14s135.19-119.87,218.14-82.41a165.32,165.32,0,0,1,82.4,82.41L768.09,532.07A427.89,427.89,0,0,0,426.34,363.89Z"/><path class="e" d="M2396.59,1035.89a421.69,421.69,0,0,1-305.65-125.52,407.22,407.22,0,0,1-128.25-302,408,408,0,0,1,128.25-302,421.75,421.75,0,0,1,305.65-127.8,409.37,409.37,0,0,1,293.16,118.14l-82.41,83.86a297.08,297.08,0,0,0-210.75-83.4,293.8,293.8,0,0,0-217.68,92.61,302.87,302.87,0,0,0-89.43,220A302.15,302.15,0,0,0,2178.91,827c119.23,118.87,311.48,121.15,433.54,5.11a246.14,246.14,0,0,0,63.44-144H2398V569.54H2791.2a383.24,383.24,0,0,1,4.65,72.29,370.75,370.75,0,0,1-101.46,273.28A394.47,394.47,0,0,1,2396.59,1035.89Zm914.29-78.76c-109.66,105.11-282.67,105.11-392.33,0a264,264,0,0,1-80.13-196.8,264.33,264.33,0,0,1,80.13-196.81c109.75-104.83,282.58-104.83,392.33,0A264.37,264.37,0,0,1,3391,760.33a264.12,264.12,0,0,1-80.58,196.8Zm-305.74-77.3a150,150,0,0,0,212.12,6.93c2.37-2.28,4.74-4.56,6.93-6.93a165.08,165.08,0,0,0,46.31-119.5,165.35,165.35,0,0,0-46.31-120,152.45,152.45,0,0,0-215.49-4.56c-1.55,1.46-3.1,3-4.56,4.56a165.43,165.43,0,0,0-46.31,120,165,165,0,0,0,46.77,119.5Zm908.74,77.3c-109.66,105.11-282.68,105.11-392.34,0a264,264,0,0,1-80.12-196.8,264.32,264.32,0,0,1,80.12-196.81c109.66-105.1,282.68-105.1,392.34,0A264.32,264.32,0,0,1,3994,760.33,263.61,263.61,0,0,1,3913.88,957.13Zm-305.65-77.3a150,150,0,0,0,212.12,6.93c2.37-2.28,4.74-4.56,6.93-6.93a165.12,165.12,0,0,0,46.31-119.5,165.43,165.43,0,0,0-46.31-120c-58.25-60.71-154.69-62.81-215.4-4.56-1.55,1.46-3.1,3-4.56,4.56a165.43,165.43,0,0,0-46.31,120,165,165,0,0,0,46.77,119.5Zm702.09,403.37a242.94,242.94,0,0,1-154.24-49.13,284.34,284.34,0,0,1-89.88-114l105.56-44a177.31,177.31,0,0,0,52.32,69,132,132,0,0,0,86.6,29.17,139.13,139.13,0,0,0,107.93-41.66,169.38,169.38,0,0,0,38.47-120.42V972.36h-4.2a176.7,176.7,0,0,1-144.94,62.53,251.48,251.48,0,0,1-185.22-80.58,266.65,266.65,0,0,1-79.22-194.07,269.28,269.28,0,0,1,79.22-195.44,250.92,250.92,0,0,1,185.22-81,199.54,199.54,0,0,1,85.24,19,171.2,171.2,0,0,1,60.25,44h4.19v-44h114.86V996a287.64,287.64,0,0,1-73.65,215.4A259.41,259.41,0,0,1,4310.32,1283.2Zm8.38-355.69a134.79,134.79,0,0,0,104.65-46.31,171.23,171.23,0,0,0,42.11-118.59,175,175,0,0,0-42.11-120.88,134.49,134.49,0,0,0-104.65-46.3,143.28,143.28,0,0,0-108.38,46.3,169.08,169.08,0,0,0-46.31,120,165.92,165.92,0,0,0,46.31,118.59A143.54,143.54,0,0,0,4318.7,927.51Zm458.06-717.85v809.55H4655.89V209.66Zm331.63,826.23a262.8,262.8,0,0,1-195-79.21,268.19,268.19,0,0,1-78.3-196.35,272,272,0,0,1,75.48-198.27,248.82,248.82,0,0,1,185.23-77.39,234.08,234.08,0,0,1,92.61,18.05A218.22,218.22,0,0,1,5259.25,549a321.61,321.61,0,0,1,46.31,56.06,338.9,338.9,0,0,1,27.34,54.15l12.49,31.54L4974.93,843.19a139,139,0,0,0,133.36,83.41A158.13,158.13,0,0,0,5244,850.21l92.61,62.53a304.19,304.19,0,0,1-89,84.32A252.27,252.27,0,0,1,5108.39,1035.89Zm-154.7-284,246.4-102.37a84.9,84.9,0,0,0-38.47-42.11,125.59,125.59,0,0,0-63.44-16.23,143.08,143.08,0,0,0-99.55,44A146.69,146.69,0,0,0,4953.69,751.94Z"/><path class="e" d="M5978.65,1035.89c-210.75,3.65-384.49-164.26-388.14-375-.09-5.11-.09-10.3.09-15.41-4.92-210.75,162-385.5,372.65-390.42,5.1-.09,10.3-.09,15.4-.09A345.73,345.73,0,0,1,6253.3,377.2L6186.58,442a251.9,251.9,0,0,0-207.47-95A283.32,283.32,0,0,0,5773,429.43a289.48,289.48,0,0,0-83.86,215.86A289.14,289.14,0,0,0,5773,861.15a283,283,0,0,0,206.11,82.4,294.46,294.46,0,0,0,231.53-108.38l66.73,66.72a364.5,364.5,0,0,1-128.26,97.72A390.34,390.34,0,0,1,5978.65,1035.89Z"/><path class="e" d="M6456.58,1019.21h-95.89v-748h95.89Z"/><path class="e" d="M6613.19,569c104.55-103.82,273.37-103.82,377.93,0a271.13,271.13,0,0,1,74.11,194.53,271.15,271.15,0,0,1-74.11,194.53c-104.56,103.82-273.38,103.82-377.93,0a271.15,271.15,0,0,1-74.11-194.53A270.76,270.76,0,0,1,6613.19,569Zm71.28,328.89A161.7,161.7,0,0,0,6913,904.17c2.19-2,4.28-4.19,6.29-6.29a185.5,185.5,0,0,0,49.59-134.27,184.71,184.71,0,0,0-49.59-134.27,161.7,161.7,0,0,0-228.53-6.29c-2.19,2-4.28,4.19-6.29,6.29a185.5,185.5,0,0,0-49.59,134.27,185.09,185.09,0,0,0,50.05,133.82Z"/><path class="e" d="M7596.4,1019.21h-92.62V948.38h-2.73a178.64,178.64,0,0,1-67.64,63.9,188.74,188.74,0,0,1-95,25.44A180.26,180.26,0,0,1,7193,979.38a231.93,231.93,0,0,1-49.59-156.52V507.92h95.9V805.27q0,143.16,126.43,143.11a117.6,117.6,0,0,0,97.26-46.3,174.46,174.46,0,0,0,37.56-110.67V507.92h95.9v511.29Z"/><path class="e" d="M7922,1035.89a225.07,225.07,0,0,1-171.37-78.3,277.91,277.91,0,0,1-71.83-194.07,278,278,0,0,1,71.83-194.07A225.38,225.38,0,0,1,7922,491.14a217.64,217.64,0,0,1,104.65,25,176.71,176.71,0,0,1,69.46,62.53h4.19l-4.19-70.82V271.19H8192v748h-92.62V948.38h-4.19a176.66,176.66,0,0,1-69.46,62.54A217.07,217.07,0,0,1,7922,1035.89Zm15.77-87.51a152.73,152.73,0,0,0,115.32-50,187.64,187.64,0,0,0,46.3-134.82,187.76,187.76,0,0,0-46.3-134.82,156.45,156.45,0,0,0-221.15-10.39c-3.64,3.28-7.11,6.83-10.39,10.39A185.46,185.46,0,0,0,7775.24,763a185.45,185.45,0,0,0,46.31,134.27A152.51,152.51,0,0,0,7937.77,948.38Z"/></svg>